<?xml version="1.0" standalone="yes"?>
<svg xmlns="http://www.w3.org/2000/svg" width="256" height="256">
<path style="fill:#fdfcfa; stroke:none;" d="M90 256C81.9212 237.237 119.371 249.901 114.923 237.115C112.176 229.221 97.1226 221.184 91.0186 215.687C72.9546 199.418 65.942 183.785 69 160C65.6045 162.661 64.4356 170.542 59.9362 171.112C48.645 172.54 52.756 150.857 56.8207 146.268C66.7324 135.078 100.756 145.663 101 130C79.7341 132.817 47.5972 127.392 35.4866 107.997C30.0738 99.3289 31.4284 90.7379 27.8976 82C23.5188 71.1634 11.6174 61.0606 16.0062 48.0026C20.8751 33.5164 33.437 36.5003 42.04 27.8523C55.3935 14.4289 65.8549 3.60927 86 4.01863C100.599 4.31529 108.085 12.5558 120.217 18.579C133.675 25.26 151.462 19.6372 152.804 42C153.657 56.2251 138.766 83.8466 147.319 97.1221C150.884 102.654 161.463 106.502 166.602 110.983C183.324 125.563 198.134 142.333 204.399 164C209.506 181.663 205.357 196.441 199.078 213C197.447 217.299 193.882 226.263 199.527 229.178C223.626 241.626 232.031 201.448 230.856 187C228.505 158.084 201.008 138.199 197.369 110C195.118 92.5596 212.929 77.109 230 80.5486C237.08 81.975 257.182 90.5483 252.614 100.893C246.666 114.359 214.178 82.6692 212.363 105.14C211.388 117.211 223.238 131.181 228.914 140.998C244.315 167.636 260.077 203.485 239.082 231.856C218.647 259.47 174.98 250.365 146 255C168.833 262.735 204.804 256 229 256C233.962 256 252.294 258.738 255.178 254.178C260.131 246.349 256 224.271 256 215L256 110L256 27C256 22.1192 258.753 2.57977 253.499 0.50145C238.836 -5.29822 211.84 0 196 0L61 0L17 0C13.2126 0 4.16755 -1.64801 1.25977 1.25977C-5.8357 8.35524 0 46.7234 0 57L0 205C0 214.318 -5.22516 248.255 1.25977 254.74C4.95452 258.435 19.0325 256 24 256L90 256z"/>
<path style="fill:#c29a6a; stroke:none;" d="M52 31C55.3145 43.9772 70.3335 55.1182 85.9739 51.5689C92.0017 50.201 95.8539 44.1544 102.217 42.4501C106.149 41.3971 117.901 44.39 120.285 41.2367C122.228 38.6659 120.446 29.1447 120 26C118.018 26.4646 117.594 26.7035 116 28C115.204 21.3666 112.061 17.1909 108 12L117 17L118 16C98.315 3.392 76.4502 -2.43115 57.9195 14.6398C54.2618 18.0094 47.3369 22.6116 47.2251 28.1429C47.1314 32.78 50.9503 38.3421 52 31M45 23L46 24C50.7491 19.297 55.8748 15.2641 61 11L60 10C54.6112 13.972 49.7431 18.2763 45 23z"/>
<path style="fill:#8d6639; stroke:none;" d="M17 60C18.3112 56.1297 17.9995 52.0555 18 48C19.3254 51.0648 19.8506 53.668 20 57C23.1092 47.8279 22.9513 38.7435 35 37L32 39C37.4131 45.7596 32.1222 63.7823 31 72C21.5755 64.0713 22.613 50.0275 31 42C23.9194 42.0978 21.8374 54.6017 21.7001 60.2174C21.3966 72.6334 31.0995 101.145 38 112C38.9399 111.452 61.6125 122 68 122C63.2318 99.7144 42.6111 103.876 38.4194 79C35.9311 64.2328 49.5496 47.6091 65 50.3725C71.1188 51.4669 79.0714 58.1386 85.0508 57.2935C91.7536 56.346 98.8565 47.3988 105.823 44.9018C119.978 39.8281 138.02 56.1582 135.574 71C133.383 84.2932 120.492 84.9904 115.822 94.4852C109.094 108.161 104.245 127.96 85 128L85 130C89.0854 129.998 104.958 127.514 100.291 136.502C97.5957 141.693 87.0149 137.794 82.4602 139.501C78.7907 140.877 78.7923 146.212 75.5395 148.396C60.4995 158.498 57.5575 149.198 57 171C64.9141 170.418 65.0991 162.138 70 157C64.7352 181.78 73.2399 199.59 91.6798 216.299C99.1561 223.074 114.616 230.723 117 241C125.835 238.114 135.423 241.551 144 244C134.55 224.163 119.223 208.335 108 190C119.226 194.283 130.467 207.131 135.22 218.001C139.094 226.863 139.394 240.081 150.061 243.93C168.321 250.519 180.52 234.405 188.645 220.07C204.771 191.622 208.447 158.645 187.32 132C179.612 122.279 170.129 112.661 160 105.465C156.203 102.767 147.636 100.411 146.079 95.6252C140.818 79.4444 148.973 56.5222 149 40C150.092 44.3162 150 48.5671 150 53C165.174 28.7614 123.288 16.8236 108 12C111.187 17.5224 114.566 21.6665 116 28L120 26C120.23 29.1583 121.957 38.2462 120.145 40.8187C117.677 44.3221 106.209 41.1324 102.217 42.1575C95.6741 43.8382 91.9826 49.4844 85.9739 51.296C72.8363 55.2571 53.0716 44.0526 53 31C49.2451 37.5982 46.0218 30.6114 47.8588 25.941C50.1568 20.0985 58.4935 15.0881 63 11C53.4756 12.0429 46.5206 23.5738 40.3978 29.8522C27.8096 42.76 17.0029 36.9397 17 60z"/>
<path style="fill:#c29a6a; stroke:none;" d="M120 19L121 20L120 19M122 20C127.299 23.9783 133.839 22.4626 140 24C138.697 17.8888 126.919 20 122 20M142 23C143.45 24.6076 144.051 25.0643 146 26C144.55 24.3923 143.949 23.9357 142 23z"/>
<path style="fill:#3d2a18; stroke:none;" d="M127 28C140.578 28.188 145.866 38.5315 146 51C150.406 39.2094 132.557 13.9742 127 28z"/>
<path style="fill:#c29a6a; stroke:none;" d="M43 27C44.6352 26.455 44.4549 26.6352 45 25C43.8245 25.7732 43.7732 25.8244 43 27M146.333 26.6667C146.278 26.7222 146.222 27.7778 146.667 27.3333C146.722 27.2777 146.778 26.2223 146.333 26.6667M42 27L43 28L42 27M130 28C133.299 36.6783 135.333 51.3136 143 57C147.025 43.9995 144.799 30.9921 130 28z"/>
<path style="fill:#8d6639; stroke:none;" d="M132 28C133.506 28.683 134.315 28.8259 136 29C134.494 28.317 133.685 28.1741 132 28z"/>
<path style="fill:#c29a6a; stroke:none;" d="M23 38C28.4299 35.4455 35.5267 34.8703 40 31C33.5044 31.0866 26.7576 32.2256 23 38M150.333 32.6667C150.278 32.7222 150.222 33.7778 150.667 33.3333C150.722 33.2777 150.778 32.2223 150.333 32.6667z"/>
<path style="fill:#8d6639; stroke:none;" d="M142.333 34.6667C142.278 34.7222 142.222 35.7778 142.667 35.3333C142.722 35.2778 142.778 34.2223 142.333 34.6667z"/>
<path style="fill:#c29a6a; stroke:none;" d="M151 35L152 48C153.484 43.6108 153.122 39.1098 151 35z"/>
<path style="fill:#8d6639; stroke:none;" d="M143.333 36.6667C143.278 36.7222 143.222 37.7778 143.667 37.3333C143.722 37.2777 143.778 36.2222 143.333 36.6667z"/>
<path style="fill:#3d2a18; stroke:none;" d="M21 58L23 58C23.2 48.4898 27.0389 42.9766 35 38C23.0427 34.6899 21.0002 49.8908 21 58z"/>
<path style="fill:#c29a6a; stroke:none;" d="M21.6667 38.3333C21.2222 38.7778 22.2778 38.7222 22.3333 38.6667C22.7778 38.2222 21.7222 38.2778 21.6667 38.3333M19 42C20.6352 41.4549 20.4549 41.6352 21 40C19.8245 40.7732 19.7732 40.8245 19 42M31 72C32.9587 61.4834 33.9124 50.6241 35 40C21.9277 42.969 20.0714 65.4264 31 72M149 40C148.95 51.1273 143.871 60.6963 146 72C148.261 65.6014 150.36 58.6194 152 52C148.016 52 150.985 42.7296 149 40M82 129C100.224 129.574 115 110.123 115 93L112 95C111.37 91.1127 108.445 87.7502 107 84L113 84C87.0899 70.6889 114.664 52.4132 131 56C123.085 28.6576 97.6185 52.2033 86 57.5C78.6708 60.8413 65.0827 45.3106 54.3333 50.5C40.7115 57.0761 29.9225 83.8455 41.5 96.5C47.2864 102.825 59.7644 101.823 63.5 106.167C66.8821 110.099 65.532 117.513 68 122C69.1391 124.071 85.883 123.453 82 129M17 44C11.6538 57.8644 19.9035 71.0983 28 82C30.2923 73.5329 21.0749 57.2658 19 48C17.6888 51.8703 18.0005 55.9445 18 60C16.6422 54.6239 18.3478 49.2108 17 44z"/>
<path style="fill:#fdfcfa; stroke:none;" d="M115 60C118.379 69.5392 120.878 82.4231 107 84C108.048 87.8379 112.055 91.7275 112 95C120.283 90.4834 148.916 65.9023 129.745 55.8585C125.981 53.8865 119.519 60.049 115 60z"/>
<path style="fill:#c29a6a; stroke:none;" d="M132 56C132.649 62.8078 134 69.075 134 76C137.428 69.3607 135.801 62.1117 132 56z"/>
<path style="fill:#3d2a18; stroke:none;" d="M106.585 59.3297C98.8762 63.6535 103.697 86.7885 113.723 80.7292C121.111 76.2648 115.515 54.3208 106.585 59.3297z"/>
<path style="fill:#8d6639; stroke:none;" d="M111 58L112 59L111 58M112 59L113 60L112 59M113 60L114 61L113 60z"/>
<path style="fill:#c29a6a; stroke:none;" d="M107 61L107 64L112 64L112 61L107 61z"/>
<path style="fill:#8d6639; stroke:none;" d="M114 61L115 62L114 61M106 62C106.654 65.0539 108.007 64.9358 111 65L106 62M115 62C115.406 64.0924 115.217 64.0197 117 65L115 62M102 63L102 73C103.153 69.5923 103.153 66.4077 102 63z"/>
<path style="fill:#3d2a18; stroke:none;" d="M60.6 65.2708C53.4497 70.0249 58.0834 91.7892 67.764 86.5651C76.5158 81.8422 69.6152 59.2767 60.6 65.2708z"/>
<path style="fill:#8d6639; stroke:none;" d="M58 66C57.0143 67.4785 57 67.2032 57 69C58.2892 67.5574 58.4009 67.7663 58 66M62 66L65 69L60 68C61.2154 73.5562 69.6831 67.4602 62 66M68 66L69 67L68 66z"/>
<path style="fill:#c29a6a; stroke:none;" d="M117 66L118 74C118.966 70.893 118.615 68.8074 117 66M61 67L61 69L65 69L65 67L61 67z"/>
<path style="fill:#8d6639; stroke:none;" d="M117 68L117 76C117.968 73.1244 117.968 70.8756 117 68M70.3333 69.6667C70.2778 69.7222 70.2222 70.7778 70.6667 70.3333C70.7223 70.2777 70.7777 69.2223 70.3333 69.6667z"/>
<path style="fill:#fdfcfa; stroke:none;" d="M83.5015 69.9397C77.2172 73.4017 83.4011 86.9612 90.4363 83.469C100.786 78.3313 93.3851 64.4949 83.5015 69.9397z"/>
<path style="fill:#8d6639; stroke:none;" d="M71 71L71 74C71.6961 72.4463 71.6961 72.5537 71 71z"/>
<path style="fill:#fdfcfa; stroke:none;" d="M74 82C62.4216 89.6581 57.1773 86.3021 55 72C53.7333 73.543 53.5108 74.0478 53 76C44.4283 70.2003 36.2717 73.7168 41.6014 84.5425C44.6091 90.6519 66.9351 106.577 72.7411 99.855C75.8451 96.2614 74 86.5016 74 82z"/>
<path style="fill:#8d6639; stroke:none;" d="M56 72L56 77C56.6306 74.9944 56.6306 74.0056 56 72M103.333 74.6667C103.278 74.7222 103.222 75.7778 103.667 75.3333C103.722 75.2777 103.778 74.2223 103.333 74.6667z"/>
<path style="fill:#c29a6a; stroke:none;" d="M147 74L147 88C148.479 83.6338 148.479 78.3662 147 74M117.333 76.6667C117.278 76.7222 117.222 77.7778 117.667 77.3333C117.722 77.2777 117.778 76.2223 117.333 76.6667M133 76C129.636 81.5285 125.529 85.6359 120 89C126.395 90.3953 133.413 82.0865 133 76M56 77C56.3982 79.5371 56.9042 81.6803 58 84C58.0259 81.2834 57.3291 79.3626 56 77z"/>
<path style="fill:#8d6639; stroke:none;" d="M57.3333 78.6667C57.2777 78.7223 57.2222 79.7777 57.6667 79.3333C57.7222 79.2778 57.7778 78.2222 57.3333 78.6667M104 78L105 79L104 78M105 79L106 80L105 79z"/>
<path style="fill:#c29a6a; stroke:none;" d="M116 79L117 80L116 79z"/>
<path style="fill:#8d6639; stroke:none;" d="M106 80L107 81L106 80z"/>
<path style="fill:#c29a6a; stroke:none;" d="M206 87C207.831 90.1388 203.295 98.9224 204 104C204.691 108.973 208.619 114.252 210.333 119C213.206 126.956 218.855 135.201 223.667 142C238.245 162.6 255.946 226.531 212 230L216 228C210.648 227.419 204.666 229.991 199 230C200.778 231.204 201.878 231.601 204 232C199.638 233.951 195.227 240.398 203.07 241.314C255.822 247.477 247.875 177.656 234 149L234 154C231.584 150.123 229.786 146.196 228 142L230 143L224 131C223.742 133.965 224.9 136.247 226 139C222.996 134.689 220.576 131.402 221 126C216.231 128.782 212.104 116.951 212 113C213.186 114.186 213.528 114.584 214 116C214.362 113.382 213.848 111.508 213 109L212 112C194.173 79.1221 236.046 89.6113 250 96C249.47 92.8207 248.578 92.3945 251 93C242.363 77.9262 218.438 76.5828 206 87z"/>
<path style="fill:#8d6639; stroke:none;" d="M114 81L115 82L114 81M58 82L59 83L58 82M71.3333 82.6667C71.2778 82.7222 71.2222 83.7778 71.6667 83.3333C71.7223 83.2777 71.7777 82.2223 71.3333 82.6667M108 82C109.75 82.6416 111.127 82.8593 113 83C111.25 82.3584 109.873 82.1407 108 82M59 84C59.5451 85.6352 59.3648 85.4549 61 86C60.455 84.3649 60.6352 84.545 59 84z"/>
<path style="fill:#c29a6a; stroke:none;" d="M59 85L60 86L59 85M60 86L61 87L60 86z"/>
<path style="fill:#8d6639; stroke:none;" d="M93 86C95.4301 88.4114 95.6667 89.6608 93 92L92 88C89.4973 95.6284 101.852 88.9493 93 86M211 112C212.263 108.3 212.311 104.607 214 101L213 100C211.814 101.186 211.416 101.528 210 102C213.596 90.4524 224.836 94.2365 234 96C232.521 96.9857 232.797 97 231 97C234.783 100.268 241.666 105.772 246.949 105.335C254.496 104.712 253.238 95.5526 249 92L250 96C233.468 85.5504 198.73 79.9309 211 112z"/>
<path style="fill:#c29a6a; stroke:none;" d="M61 87L62 88L61 87z"/>
<path style="fill:#8d6639; stroke:none;" d="M62 87L63 88L62 87z"/>
<path style="fill:#c29a6a; stroke:none;" d="M67.6667 87.3333C67.2222 87.7778 68.2778 87.7222 68.3333 87.6667C68.7778 87.2222 67.7222 87.2778 67.6667 87.3333z"/>
<path style="fill:#3d2a18; stroke:none;" d="M92 87L93 92C94.9943 90.4638 95.4095 89.4639 96 87L92 87z"/>
<path style="fill:#c29a6a; stroke:none;" d="M63 88C64.506 88.683 65.3148 88.8259 67 89C65.4939 88.317 64.6852 88.1741 63 88z"/>
<path style="fill:#8d6639; stroke:none;" d="M81 88C82.3175 93.5038 87.6171 94.7333 87 88C86.6852 89.8159 86.7648 91.1517 87 93C84.6237 91.6239 83.1109 89.6954 81 88z"/>
<path style="fill:#3d2a18; stroke:none;" d="M83 88C83.6011 90.9704 84.1662 91.9079 87 93C86.3733 90.0639 85.8527 88.9873 83 88z"/>
<path style="fill:#c29a6a; stroke:none;" d="M204 88L205 89L204 88z"/>
<path style="fill:#8d6639; stroke:none;" d="M212 229C229.703 233.251 239.268 206.93 239.922 194C241.06 171.52 229.275 150.975 218.021 131.997C209.923 118.343 199.971 103.436 208 88C191.904 94.1721 198.812 117.783 204.121 129C216.957 156.119 257.67 208.834 212 229z"/>
<path style="fill:#c29a6a; stroke:none;" d="M29 90C29.1606 93.5706 29.8262 96.6262 31 100C31.7658 96.3252 30.9162 93.1875 29 90M116 92C117.806 92.0532 118.262 91.7987 120 91C118.171 90.8427 117.605 91.0624 116 92M146 90L145 98C146.291 95.2055 146.767 92.9995 146 90M202 91L203 92L202 91M201 92L202 93L201 92M200 93L199 97C200.06 95.3529 200.27 94.911 200 93z"/>
<path style="fill:#3d2a18; stroke:none;" d="M210 102C219.137 97.5631 223.777 96.048 234 97C226.06 92.2644 212.269 90.9608 210 102z"/>
<path style="fill:#c29a6a; stroke:none;" d="M252 95L253 102C253.878 99.1328 253.585 97.5318 252 95M217 97C221.478 97.9616 226.377 97.3939 231 98C226.44 95.6458 221.913 95.9481 217 97z"/>
<path style="fill:#8d6639; stroke:none;" d="M228.667 96.3333C228.222 96.7778 229.278 96.7222 229.333 96.6667C229.778 96.2222 228.722 96.2777 228.667 96.3333z"/>
<path style="fill:#c29a6a; stroke:none;" d="M198 97L198 102C198.631 99.9944 198.631 99.0056 198 97z"/>
<path style="fill:#3d2a18; stroke:none;" d="M140 98L141 102C138.588 102.157 136.361 102.48 134 103C141.891 113.817 149.3 120.152 154 133C156.6 120.109 141.537 108.319 145 98L140 98z"/>
<path style="fill:#8d6639; stroke:none;" d="M215 98L216 99L215 98z"/>
<path style="fill:#c29a6a; stroke:none;" d="M149 99L152 101C151.02 99.2167 151.092 99.4057 149 99M214 99L215 100L214 99M233.667 99.3333C233.222 99.7778 234.278 99.7222 234.333 99.6667C234.778 99.2222 233.722 99.2778 233.667 99.3333z"/>
<path style="fill:#8d6639; stroke:none;" d="M102.667 101.333C102.222 101.778 103.278 101.722 103.333 101.667C103.778 101.222 102.722 101.278 102.667 101.333z"/>
<path style="fill:#3d2a18; stroke:none;" d="M107 101C103.191 101.578 76.6433 104.268 76.6433 107.402C76.6433 121.52 104.663 112.362 107 101z"/>
<path style="fill:#8d6639; stroke:none;" d="M107 101L107 104C107.696 102.446 107.696 102.554 107 101z"/>
<path style="fill:#c29a6a; stroke:none;" d="M153 101L154 102L153 101M213 101L214 102L213 101M237 101L238 102L237 101M32 102L34 105L32 102z"/>
<path style="fill:#8d6639; stroke:none;" d="M97 102L100 103L97 102z"/>
<path style="fill:#c29a6a; stroke:none;" d="M154.667 102.333C154.222 102.778 155.278 102.722 155.333 102.667C155.778 102.222 154.722 102.278 154.667 102.333M197 102L197 112C198.153 108.592 198.153 105.408 197 102M239 102L240 103L239 102M252 102L253 103L252 102z"/>
<path style="fill:#8d6639; stroke:none;" d="M88 103C90.064 103.725 91.8045 103.909 94 104C91.936 103.275 90.1955 103.091 88 103z"/>
<path style="fill:#c29a6a; stroke:none;" d="M240 103C241.273 104.748 241.974 105.182 244 106C242.607 104.566 241.767 103.955 240 103z"/>
<path style="fill:#8d6639; stroke:none;" d="M74 106L86 105C81.8651 103.6 77.7284 103.666 74 106z"/>
<path style="fill:#fdfcfa; stroke:none;" d="M107 104C97.6498 118.246 83.0861 118.218 73 105C70.5026 124.776 103.55 116.401 109 104L107 104z"/>
<path style="fill:#c29a6a; stroke:none;" d="M250 104L251 105L250 104z"/>
<path style="fill:#8d6639; stroke:none;" d="M106 105L107 106L106 105z"/>
<path style="fill:#c29a6a; stroke:none;" d="M34 106L35 107L34 106z"/>
<path style="fill:#8d6639; stroke:none;" d="M105 106L106 107L105 106z"/>
<path style="fill:#c29a6a; stroke:none;" d="M161 106L162 107L161 106M74 107L75 108L74 107z"/>
<path style="fill:#8d6639; stroke:none;" d="M104 107L105 108L104 107z"/>
<path style="fill:#c29a6a; stroke:none;" d="M35 108L36 109L35 108z"/>
<path style="fill:#8d6639; stroke:none;" d="M75 108L76 109L75 108z"/>
<path style="fill:#c29a6a; stroke:none;" d="M104 108L105 109L104 108M163 108L164 109L163 108M36 109L37 110L36 109M76 109L77 110L76 109z"/>
<path style="fill:#8d6639; stroke:none;" d="M102 109L103 110L102 109z"/>
<path style="fill:#c29a6a; stroke:none;" d="M165 109L166 110L165 109z"/>
<path style="fill:#3d2a18; stroke:none;" d="M39 110C43.3981 122.237 57.5364 124.994 69 125C64.2642 119.266 46.5014 115.54 39 110z"/>
<path style="fill:#c29a6a; stroke:none;" d="M77 110L78 111L77 110z"/>
<path style="fill:#8d6639; stroke:none;" d="M101 110L102 111L101 110z"/>
<path style="fill:#c29a6a; stroke:none;" d="M166 110L167 111L166 110M37 111L38 112L37 111M78 111L79 112L78 111z"/>
<path style="fill:#8d6639; stroke:none;" d="M79 111L80 112L79 111M100 111L101 112L100 111z"/>
<path style="fill:#c29a6a; stroke:none;" d="M38 112L39 113L38 112z"/>
<path style="fill:#8d6639; stroke:none;" d="M80.6667 112.333C80.2222 112.778 81.2778 112.722 81.3333 112.667C81.7777 112.222 80.7223 112.278 80.6667 112.333M98 112L99 113L98 112z"/>
<path style="fill:#c29a6a; stroke:none;" d="M96 147C103.137 147.004 116.168 145.108 122.462 147.083C129.286 149.225 142.724 159.832 150.178 156.039C160.419 150.829 145.135 116.215 136.997 113.126C133.227 111.695 127.468 111.087 125.284 115.284C121.731 122.115 131.887 130.553 128.109 134.962C120.076 144.339 101.053 133.137 96 147M168 112L169 113L168 112M39 113L40 114L39 113M81.6667 113.333C81.2222 113.778 82.2778 113.722 82.3333 113.667C82.7778 113.222 81.7222 113.278 81.6667 113.333z"/>
<path style="fill:#8d6639; stroke:none;" d="M83 113C84.736 114.083 85.9941 114.544 88 115C86.2639 113.917 85.0059 113.456 83 113M97 113L98 114L97 113z"/>
<path style="fill:#c29a6a; stroke:none;" d="M169 113L170 114L169 113z"/>
<path style="fill:#8d6639; stroke:none;" d="M212 113C212.605 118.995 215.252 123.378 219 128C219.684 122.964 215.21 116.639 212 113z"/>
<path style="fill:#c29a6a; stroke:none;" d="M40 114C40.7732 115.176 40.8245 115.227 42 116C41.4549 114.365 41.6352 114.545 40 114M94.6667 114.333C94.2222 114.778 95.2778 114.722 95.3333 114.667C95.7777 114.222 94.7222 114.278 94.6667 114.333M198.333 114.667C198.278 114.722 198.222 115.778 198.667 115.333C198.722 115.278 198.778 114.222 198.333 114.667M85 115C87.678 115.914 90.1733 115.974 93 116C90.322 115.086 87.8267 115.026 85 115z"/>
<path style="fill:#8d6639; stroke:none;" d="M42.6667 116.333C42.2223 116.778 43.2778 116.722 43.3333 116.667C43.7778 116.222 42.7222 116.278 42.6667 116.333z"/>
<path style="fill:#c29a6a; stroke:none;" d="M172 116L173 117L172 116M43 117C43.7732 118.176 43.8245 118.227 45 119C44.4549 117.365 44.6352 117.545 43 117M173 117L174 118L173 117M199 117L199 120C199.696 118.446 199.696 118.554 199 117M215 117L217 120L215 117M174 118L175 119L174 118M45 119L46 120L45 119z"/>
<path style="fill:#8d6639; stroke:none;" d="M46 119L47 120L46 119z"/>
<path style="fill:#c29a6a; stroke:none;" d="M47 120L48 121L47 120z"/>
<path style="fill:#3d2a18; stroke:none;" d="M106 120C103.561 126.892 102.555 130.546 103 138C106.682 137.512 110.282 137.071 114 137C112.104 132.112 111.064 121.781 106 120z"/>
<path style="fill:#c29a6a; stroke:none;" d="M200.333 120.667C200.278 120.722 200.222 121.778 200.667 121.333C200.722 121.278 200.778 120.222 200.333 120.667M48.6667 121.333C48.2223 121.778 49.2778 121.722 49.3333 121.667C49.7778 121.222 48.7222 121.278 48.6667 121.333M177 121L178 122L177 121M50 122L53 124L50 122M201 122L202 128C202.613 125.488 202.288 124.238 201 122z"/>
<path style="fill:#8d6639; stroke:none;" d="M53 123C54.6869 123.944 56.1291 124.481 58 125C56.2639 123.917 55.0059 123.456 53 123M64 125C69.918 127.005 77.7212 127.193 84 128C77.4059 122.221 71.8977 123.985 64 125z"/>
<path style="fill:#c29a6a; stroke:none;" d="M218.333 123.667C218.278 123.722 218.222 124.778 218.667 124.333C218.722 124.278 218.778 123.222 218.333 123.667M54.6667 124.333C54.2222 124.778 55.2778 124.722 55.3333 124.667C55.7778 124.222 54.7222 124.278 54.6667 124.333M180 124L181 125L180 124M58 125C64.0995 128.512 73.0771 127.082 80 128C74.1842 124.652 64.6659 125.236 58 125M181 125L182 126L181 125M158 126C156.253 132.945 157.679 140.879 158.08 148C158.452 154.598 156.467 179.336 161.821 183.387C170.008 189.583 180.446 173.447 180.931 166.941C182.25 149.229 174.245 134.216 158 126M182 126C182.545 127.635 182.365 127.455 184 128C183.227 126.824 183.176 126.773 182 126M184 128L185 129L184 128M203 128L204 129L203 128z"/>
<path style="fill:#8d6639; stroke:none;" d="M220 128C220.771 132.167 222.866 135.383 225 139C225.334 134.876 223.035 130.725 220 128z"/>
<path style="fill:#c29a6a; stroke:none;" d="M88 130C92.3149 131.459 96.588 130.781 101 130C96.8268 128.784 92.3197 129.918 88 130M185 129L186 130L185 129M186 130L187 131L186 130M205 131L206 132L205 131M187 132L188 133L187 132M188 133L189 134L188 133M206 133L207 134L206 133z"/>
<path style="fill:#3d2a18; stroke:none;" d="M155 134C155 156.344 156.119 173.441 128 161C130.553 167.921 147.725 183.936 155.398 174.178C161.831 165.999 158.04 142.956 155 134z"/>
<path style="fill:#c29a6a; stroke:none;" d="M189 134L190 135L189 134M207.333 134.667C207.278 134.722 207.222 135.778 207.667 135.333C207.722 135.278 207.778 134.222 207.333 134.667M101.333 136.667C101.278 136.722 101.222 137.778 101.667 137.333C101.722 137.278 101.778 136.222 101.333 136.667M191 137L193 140L191 137M208 137L209 138L208 137M88 138C92.1604 139.409 96.643 139 101 139C96.8396 137.591 92.357 138 88 138M62 172C60.2498 171.358 58.8727 171.141 57 171C57.7643 164.975 53.6357 157.493 59.468 152.819C65.2018 148.225 78.1358 153.222 79.2848 143.066C80.0327 136.456 69.275 140.381 66.0186 141.089C52.6123 144.008 44.4778 170.729 62 172M209 139C209.545 140.635 209.365 140.455 211 141C210.227 139.824 210.176 139.773 209 139M193 140L195 143L193 140M211 142L212 143L211 142z"/>
<path style="fill:#8d6639; stroke:none;" d="M228 142C229.363 146.185 231.131 150.029 233 154C234.054 149.208 231.295 145.285 228 142z"/>
<path style="fill:#c29a6a; stroke:none;" d="M195 143L196 144L195 143M196.333 144.667C196.278 144.722 196.222 145.778 196.667 145.333C196.722 145.278 196.778 144.222 196.333 144.667M231 145L233 148L231 145M197.333 146.667C197.278 146.722 197.222 147.778 197.667 147.333C197.722 147.278 197.778 146.222 197.333 146.667M215 147L215 150C215.696 148.446 215.696 148.554 215 147M198 148L199 152C199.27 150.089 199.06 149.647 198 148M82.645 151.042C77.3542 153.978 79.5219 163.753 83.7623 166.74C88.0693 169.774 96.6711 168.669 101.863 170.581C112.103 174.35 119.439 181.302 128.96 186.035C132.481 187.786 139.339 190.737 143.135 188.178C148.371 184.649 135.357 171.55 133.097 168.981C123.428 157.989 98.0125 142.515 82.645 151.042M216 150L217 151L216 150z"/>
<path style="fill:#8d6639; stroke:none;" d="M158 152L158 164L160 164C159.96 159.767 159.799 155.881 158 152z"/>
<path style="fill:#c29a6a; stroke:none;" d="M200.333 152.667C200.278 152.722 200.222 153.778 200.667 153.333C200.722 153.278 200.778 152.222 200.333 152.667M217 152L218 153L217 152M218 153C218.544 154.894 219.096 156.24 220 158C219.959 155.741 219.388 154.805 218 153z"/>
<path style="fill:#8d6639; stroke:none;" d="M234 154C243.935 182.63 256.879 216.834 223.78 235.262C218.059 238.447 209.842 242.293 203.071 240.957C196.483 239.657 199.375 234.306 204 233L197 228C187.256 231.361 175.906 238.735 172 249C194.121 249.828 214.694 252.49 233.952 237.178C253.792 221.403 254.583 170.031 234 154z"/>
<path style="fill:#c29a6a; stroke:none;" d="M236 155L237 156L236 155M201 156L205 170C205.723 165.076 203.896 159.958 201 156M237.333 156.667C237.278 156.722 237.222 157.778 237.667 157.333C237.722 157.278 237.778 156.222 237.333 156.667M69 157L67 160C69.2508 159.527 70.1178 159.14 69 157M221.333 158.667C221.278 158.722 221.222 159.778 221.667 159.333C221.722 159.278 221.778 158.222 221.333 158.667M238 158L239 162C239.27 160.089 239.06 159.647 238 158M66 161L67 162L66 161M222 161L223 162L222 161M65.3333 162.667C65.2778 162.722 65.2222 163.778 65.6667 163.333C65.7222 163.278 65.7778 162.222 65.3333 162.667M223.333 162.667C223.278 162.722 223.222 163.778 223.667 163.333C223.722 163.278 223.778 162.222 223.333 162.667M240.333 162.667C240.278 162.722 240.222 163.778 240.667 163.333C240.722 163.278 240.778 162.222 240.333 162.667M64.3333 164.667C64.2778 164.722 64.2222 165.778 64.6667 165.333C64.7222 165.278 64.7778 164.222 64.3333 164.667M224.333 164.667C224.278 164.722 224.222 165.778 224.667 165.333C224.722 165.278 224.778 164.222 224.333 164.667M67 166L67 180C68.4791 175.634 68.4791 170.366 67 166z"/>
<path style="fill:#3d2a18; stroke:none;" d="M203 166C197.59 191.216 195.92 211.564 179.324 232.977C172.013 242.411 158.765 250.664 147.479 242.191C129.973 229.048 134.982 196.509 108 190C114.19 205.128 129.811 221.75 138.856 236C141.808 240.652 146.348 249.699 151.432 252.178C158.59 255.668 174.829 252 183 252C179.987 249.015 176.069 249.08 172 249C175.935 241.517 187.079 229.254 196 230C192.522 209.122 213.396 188.432 203 166z"/>
<path style="fill:#8d6639; stroke:none;" d="M132 167C133.747 170.56 135.734 172.758 139 175C137.313 171.394 135.245 169.286 132 167z"/>
<path style="fill:#c29a6a; stroke:none;" d="M242 167L242 170C242.696 168.446 242.696 168.554 242 167z"/>
<path style="fill:#8d6639; stroke:none;" d="M204.333 168.667C204.278 168.722 204.222 169.778 204.667 169.333C204.722 169.278 204.778 168.222 204.333 168.667z"/>
<path style="fill:#c29a6a; stroke:none;" d="M63.3333 169.667C63.2778 169.722 63.2222 170.778 63.6667 170.333C63.7222 170.278 63.7778 169.222 63.3333 169.667M226 169L227 174C227.387 171.811 227.111 170.936 226 169z"/>
<path style="fill:#8d6639; stroke:none;" d="M205 170C205 179.083 204.541 187.955 204 197C207.238 190.013 207.466 177.278 205 170z"/>
<path style="fill:#c29a6a; stroke:none;" d="M243.333 170.667C243.278 170.722 243.222 171.778 243.667 171.333C243.722 171.278 243.778 170.222 243.333 170.667M206 172L206 188C207.628 183.194 207.628 176.806 206 172M228.333 174.667C228.278 174.722 228.222 175.778 228.667 175.333C228.722 175.278 228.778 174.222 228.333 174.667M244 174L245 178C245.751 175.954 245.656 175.404 244 174M229 176L229 180C229.507 178.308 229.507 177.692 229 176M68.3333 180.667C68.2778 180.722 68.2222 181.778 68.6667 181.333C68.7222 181.278 68.7778 180.222 68.3333 180.667M107 212C132.999 198.062 61.7325 166.271 86.9598 192.764C89.3627 195.287 91.3922 198.276 93.8766 200.686C98.436 205.11 103.455 206.176 107 212M246.333 180.667C246.278 180.722 246.222 181.778 246.667 181.333C246.722 181.278 246.778 180.222 246.333 180.667M230 181L230 184C230.696 182.446 230.696 182.554 230 181M247 184L247 188C247.507 186.308 247.507 185.692 247 184M69 185L69 188C69.6961 186.446 69.6961 186.554 69 185M231 186C231 194.089 230.749 201.952 230 210C233.648 203.686 234.367 192.521 231 186M248 188L248 195C248.864 192.405 248.864 190.595 248 188M71 189L71 192C71.6961 190.446 71.6961 190.554 71 189M72.3333 193.667C72.2778 193.722 72.2222 194.778 72.6667 194.333C72.7222 194.278 72.7778 193.222 72.3333 193.667M205 193L205 197C205.507 195.308 205.507 194.692 205 193M74 197C75.0012 198.924 75.0775 199.098 77 200C75.9988 198.076 75.9225 197.902 74 197M204 197L203 204C204.147 201.508 204.555 199.694 204 197z"/>
<path style="fill:#8d6639; stroke:none;" d="M202 199L202 205L204 199L202 199z"/>
<path style="fill:#c29a6a; stroke:none;" d="M77 201C77.5451 202.635 77.3648 202.455 79 203C78.2268 201.824 78.1755 201.773 77 201M79 203L80 204L79 203M248 204L247 214C248.56 210.633 249.119 207.575 248 204M80 205L81 206L80 205M81 206L82 207L81 206M201 206L202 207L201 206M82 207L83 208L82 207M83 208L84 209L83 208M200 209L201 210L200 209M85 210L86 211L85 210M199 210L199 213C199.696 211.446 199.696 211.554 199 210M86 211L87 212L86 211M229 211C228.014 212.479 228 212.203 228 214C229.289 212.557 229.401 212.766 229 211M87 212L88 213L87 212M88 213L89 214L88 213z"/>
<path style="fill:#8d6639; stroke:none;" d="M197 213L196 217C197.06 215.353 197.27 214.911 197 213z"/>
<path style="fill:#c29a6a; stroke:none;" d="M198 213L199 214L198 213M89 214L90 215L89 214M90 215L91 216L90 215M227 215L226 219C226.938 217.395 227.157 216.829 227 215M91.6667 216.333C91.2222 216.778 92.2778 216.722 92.3333 216.667C92.7778 216.222 91.7222 216.278 91.6667 216.333M197 216C196.446 218.066 196.149 219.866 196 222C196.995 219.829 197.335 218.363 197 216M95 219L96 220L95 219M96 220L97 221L96 220z"/>
<path style="fill:#8d6639; stroke:none;" d="M194 220L194 226L196 226L196 220L194 220z"/>
<path style="fill:#c29a6a; stroke:none;" d="M224 220L225 221L224 220M245 220C244.014 221.479 244 221.203 244 223C245.289 221.557 245.401 221.766 245 220M97 221L98 222L97 221M223 221L224 222L223 221M98 222L99 223L98 222M99.6667 223.333C99.2222 223.778 100.278 223.722 100.333 223.667C100.778 223.222 99.7222 223.278 99.6667 223.333M220 225C221.635 224.455 221.455 224.635 222 223C220.825 223.773 220.773 223.825 220 225M101 224L102 225L101 224M243 224L244 225L243 224M103.333 225.667C103.278 225.722 103.222 226.778 103.667 226.333C103.722 226.278 103.778 225.222 103.333 225.667M218.667 225.333C218.222 225.778 219.278 225.722 219.333 225.667C219.778 225.222 218.722 225.278 218.667 225.333M242.333 225.667C242.278 225.722 242.222 226.778 242.667 226.333C242.722 226.278 242.778 225.222 242.333 225.667M196.333 226.667C196.278 226.722 196.222 227.778 196.667 227.333C196.722 227.278 196.778 226.222 196.333 226.667M217 226L218 227L217 226M104 227L107 229L104 227M197 228L198 229L197 228M241 228L242 229L241 228M107 229L108 230L107 229M240.333 229.667C240.278 229.722 240.222 230.778 240.667 230.333C240.722 230.278 240.778 229.222 240.333 229.667M109 231L110 232L109 231M239 231L240 232L239 231M111 232L112 233L111 232M112 233L113 234L112 233M237 234L238 235L237 234M115 236C115.153 248.711 95.9213 241.619 89.5234 247.04C81.6245 253.732 95.8782 255.877 100 255L96 253C108.682 249.74 135.548 257.414 145.167 251.179C153.551 245.745 122.942 238.502 117 241C116.78 238.66 116.663 237.618 115 236M235 236L236 237L235 236M233.667 237.333C233.222 237.778 234.278 237.722 234.333 237.667C234.778 237.222 233.722 237.278 233.667 237.333M232 238L233 239L232 238M229 241L232 239L229 241M226 243C227.175 242.227 227.227 242.175 228 241C226.365 241.545 226.545 241.365 226 243M224 243L225 244L224 243M218.667 245.333C218.222 245.778 219.278 245.722 219.333 245.667C219.778 245.222 218.722 245.278 218.667 245.333M213 247C214.982 247.537 215.962 247.435 218 247C216.184 246.685 214.848 246.765 213 247z"/>
<path style="fill:#8d6639; stroke:none;" d="M147 247C145.073 254.528 104.773 251.919 96 252L96 254C120.623 253.772 145.368 254.474 170 253C160.688 249.851 154.259 255.66 147 247z"/>
<path style="fill:#c29a6a; stroke:none;" d="M209 248L212 249L209 248M204.667 249.333C204.222 249.778 205.278 249.722 205.333 249.667C205.778 249.222 204.722 249.278 204.667 249.333M198 250C200.064 250.725 201.804 250.909 204 251C201.936 250.275 200.196 250.091 198 250M192 251C193.506 251.683 194.315 251.826 196 252C194.494 251.317 193.685 251.174 192 251M164 253C171.584 255.569 180.19 253.149 188 253C180.479 250.452 171.734 252.537 164 253M104 253C110.122 255.074 117.584 254 124 254C117.878 251.926 110.416 253 104 253M128 254C134.325 256.443 141.82 256.89 148 254C141.65 252.976 134.476 254 128 254z"/>
<path style="fill:#fdfcfa; stroke:none;" d="M98 255C108.416 258.529 123.027 256 134 256C124.009 252.141 108.361 252.777 98 255z"/>
<path style="fill:#c29a6a; stroke:none;" d="M150 254C153.28 255.112 156.554 254.995 160 255C156.72 253.888 153.446 254.005 150 254z"/>
</svg>
